<?xml version="1.0" encoding="UTF-8" standalone="no"?>
<!DOCTYPE svg PUBLIC "-//W3C//DTD SVG 1.1//EN"
 "http://www.w3.org/Graphics/SVG/1.1/DTD/svg11.dtd">
<!-- Generated by graphviz version 2.36.0 (20140111.2315)
 -->
<!-- Title: ProtractorArch Pages: 1 -->
<svg width="410pt" height="104pt"
 viewBox="0.00 0.00 410.00 104.00" xmlns="http://www.w3.org/2000/svg" xmlns:xlink="http://www.w3.org/1999/xlink">
<g id="graph0" class="graph" transform="scale(1 1) rotate(0) translate(4 100)">
<title>ProtractorArch</title>
<polygon fill="white" stroke="none" points="-4,4 -4,-100 406,-100 406,4 -4,4"/>
<!-- a -->
<g id="node1" class="node"><title>a</title>
<polygon fill="seashell" stroke="none" points="8,-4 8,-92 114,-92 114,-4 8,-4"/>
<text text-anchor="start" x="39.5" y="-75.3" font-family="Times,serif" font-size="14.00">NodeJS</text>
<polygon fill="aliceblue" stroke="none" points="13,-9 13,-65 109,-65 109,-9 13,-9"/>
<text text-anchor="start" x="33.5" y="-48.8" font-family="Times,serif" font-size="14.00">Protractor</text>
<polygon fill="khaki" stroke="none" points="18,-14 18,-39 104,-39 104,-14 18,-14"/>
<text text-anchor="start" x="23.5" y="-22.8" font-family="Times,serif" font-size="14.00">WebDriverJS</text>
<polygon fill="none" stroke="black" points="18,-14 18,-39 104,-39 104,-14 18,-14"/>
<polygon fill="none" stroke="black" points="13,-9 13,-65 109,-65 109,-9 13,-9"/>
<polygon fill="none" stroke="black" points="8,-4 8,-92 114,-92 114,-4 8,-4"/>
</g>
<!-- d -->
<g id="node2" class="node"><title>d</title>
<polygon fill="khaki" stroke="black" points="265.5,-44 158.5,-44 158.5,-8 265.5,-8 265.5,-44"/>
<text text-anchor="middle" x="212" y="-22.3" font-family="Times,serif" font-size="14.00">Selenium Server</text>
</g>
<!-- a&#45;&gt;d -->
<g id="edge1" class="edge"><title>a:protractor&#45;&gt;d</title>
<path fill="none" stroke="black" d="M102,-26C116.914,-26 132.976,-26 148.066,-26"/>
<polygon fill="black" stroke="black" points="148.331,-29.5001 158.331,-26 148.331,-22.5001 148.331,-29.5001"/>
</g>
<!-- e -->
<g id="node3" class="node"><title>e</title>
<polygon fill="lavender" stroke="none" points="310.5,-9.5 310.5,-66.5 393.5,-66.5 393.5,-9.5 310.5,-9.5"/>
<text text-anchor="start" x="329.5" y="-49.3" font-family="Times,serif" font-size="14.00">Browser</text>
<polygon fill="khaki" stroke="none" points="316,-14 316,-39 389,-39 389,-14 316,-14"/>
<text text-anchor="start" x="321.5" y="-22.8" font-family="Times,serif" font-size="14.00">WebDriver</text>
<polygon fill="none" stroke="black" points="316,-14 316,-39 389,-39 389,-14 316,-14"/>
<polygon fill="none" stroke="black" points="310.5,-9.5 310.5,-66.5 393.5,-66.5 393.5,-9.5 310.5,-9.5"/>
</g>
<!-- d&#45;&gt;e -->
<g id="edge2" class="edge"><title>d&#45;&gt;e:browser</title>
<path fill="none" stroke="black" d="M265.609,-26C279.084,-26 293.761,-26 307.86,-26"/>
<polygon fill="black" stroke="black" points="308,-29.5001 318,-26 308,-22.5001 308,-29.5001"/>
</g>
</g>
</svg>
